<svg width="22" height="25" viewBox="0 0 22 25" fill="none" xmlns="http://www.w3.org/2000/svg">
<path d="M21.8182 14.7226C21.562 13.2876 20.7653 11.82 19.717 10.7344C20.5696 9.29478 21.5154 8.08809 21.6878 6.34095C21.8369 4.85006 21.576 3.02837 20.5929 1.84031C19.6285 0.675554 18.3193 0.307489 16.8703 0.209649C14.9368 0.079196 12.9894 0.0419237 11.0559 0.0652189C8.10668 0.0978322 4.26762 -0.540457 1.85424 1.58873C0.684821 2.61372 0.116418 4.30495 0.00925982 5.81914C-0.130511 7.81321 1.23925 9.30876 2.2456 10.8928C1.28118 12.1508 0.666185 13.6836 0.344711 15.2351C-0.0978981 17.4202 0.00925988 19.0881 0.903796 21.1614C1.37902 22.2609 2.22231 23.6027 3.24264 24.2922C3.94149 24.7628 4.79876 24.7488 5.60943 24.7768C8.09736 24.8746 10.5946 24.8513 13.0825 24.8094C14.6899 24.7814 16.6653 25.0191 18.2354 24.5811C19.7822 24.1478 20.565 22.3587 21.1567 21.0076C21.9953 19.0974 22.1863 16.7586 21.8182 14.7179V14.7226ZM3.30786 1.41168C5.52557 0.284194 8.61917 0.74078 11.0559 0.712826C12.2812 0.698849 13.5112 0.712826 14.7365 0.764075C16.4324 0.83862 18.4125 0.666235 19.7496 1.89622C20.8585 2.91189 21.1613 4.65904 21.0635 6.10334C20.947 7.79457 20.0478 8.9407 19.2325 10.2825C19.1253 10.194 19.0228 10.0961 18.9157 10.0169C18.2587 9.52308 17.6065 9.11774 16.9495 8.78229C17.886 7.31469 19.3117 5.20414 17.3782 3.83438C15.4819 2.49258 12.1228 3.04701 9.97495 3.0703C9.03383 3.07962 8.11599 3.16348 7.18419 3.26598C6.26169 3.36382 5.055 3.32655 4.27694 3.91359C2.36208 5.35323 3.46627 7.40787 4.57046 8.88013C4.37478 8.99195 4.1791 9.0991 3.99274 9.2249C3.50354 9.55569 3.07025 9.94705 2.67889 10.3757C1.76106 8.97797 0.614935 7.63616 0.68948 5.87504C0.764025 4.04404 1.63992 2.26895 3.31252 1.421L3.30786 1.41168ZM11.1537 7.48242C9.11769 7.49639 7.00248 7.70605 5.14818 8.57263C4.36081 7.57094 3.35911 6.25709 4.20706 4.97119C4.86398 3.9695 5.99147 4.03006 7.02578 3.92291C8.18588 3.80177 9.31337 3.71325 10.4828 3.70859C12.1041 3.70393 13.814 3.59211 15.4214 3.82507C16.5628 3.98813 17.5645 4.46336 17.6251 5.78652C17.6717 6.84413 16.9029 7.65014 16.3625 8.49343C14.7738 7.79457 13.1058 7.50105 11.1583 7.47776L11.1537 7.48242ZM21.2918 17.4108C21.2172 19.2745 20.6022 21.003 19.6145 22.5777C18.4218 24.4786 16.1109 24.1059 14.1401 24.1478C11.7873 24.1991 9.4345 24.2224 7.08169 24.1758C5.53023 24.1478 4.14649 24.2783 2.94446 23.1182C1.84026 22.0559 1.29981 20.5557 0.866524 19.1254C0.111759 16.6328 1.30913 12.9987 2.92116 11.0606C4.94784 8.62388 8.16259 8.15798 11.149 8.13468C14.0609 8.16729 16.9262 8.89876 19.0927 10.986C20.8352 12.6679 21.3849 15.0813 21.2871 17.4108H21.2918Z" fill="#003278"/>
</svg>
