<svg width="34" height="24" viewBox="0 0 34 24" fill="none" xmlns="http://www.w3.org/2000/svg">
<path d="M34 14.5062C34 14.4683 33.9946 14.4303 33.9783 14.3924C33.9729 14.3707 33.9621 14.3491 33.9566 14.3328C33.9566 14.3328 33.9566 14.3274 33.9566 14.322C32.1684 11.9431 30.3423 9.59675 28.3969 7.34251C26.6358 5.30503 24.7284 2.89365 22.4362 1.44141C19.082 -0.682774 14.6819 0.276359 10.6936 1.44141C10.6936 1.43057 10.6936 1.41973 10.6828 1.41431C10.0759 0.368479 9.16008 -0.254686 7.93001 0.0975376C7.42064 0.243846 6.93836 0.601489 6.81373 1.14337C6.70535 1.62023 7.04132 2.05915 7.37729 2.40054C0.056444 3.11583 -1.69384 15.6333 5.38857 19.4211C7.4965 20.5482 9.32264 21.1497 11.6853 20.3585C11.7936 20.3206 11.8803 20.2718 11.9833 20.2285C12.0429 20.2285 12.1025 20.2177 12.1675 20.1851C13.8799 19.3073 15.6356 18.5216 17.3425 17.6437C17.3425 17.6437 17.3479 17.6383 17.3534 17.6329C19.7647 19.8221 22.2466 21.9354 24.8259 23.9187C24.9722 24.0325 25.1185 24.0054 25.2215 23.9133C28.1748 22.5044 30.8517 20.6674 33.8158 19.2965C33.9296 19.2423 34.0108 19.0905 34.0054 18.9713C33.9296 17.4866 33.9946 15.9964 34.0054 14.5116C34.0054 14.5116 34.0054 14.5116 34.0054 14.5062H34ZM22.8968 2.74735C26.8146 6.03116 30.0172 10.3391 33.0788 14.4141C31.8433 15.2432 30.5319 15.8609 29.1556 16.4516C28.5595 16.7063 27.9634 16.9501 27.3836 17.2265C26.9826 17.4161 25.6821 18.3969 25.2703 18.2886C24.6742 18.1314 23.5688 16.3865 23.1515 15.9205C22.252 14.9126 21.3524 13.8993 20.4583 12.8806C18.6647 10.8377 16.8765 8.78934 15.1912 6.65974C13.907 5.03951 12.807 3.54933 10.7695 2.85572C10.3685 2.72025 9.98374 2.62271 9.60442 2.54685C14.0804 1.19756 19.2879 -0.276362 22.8968 2.75276V2.74735ZM7.64823 1.13253C7.83247 0.758635 8.57485 0.726122 8.9054 0.78031C9.34432 0.850755 9.69654 1.27342 9.93497 1.65816C9.3389 1.83698 8.75909 2.0158 8.19011 2.18379C8.17385 2.15127 8.15218 2.11334 8.11966 2.08083C7.88124 1.85866 7.46399 1.50643 7.64823 1.13253ZM3.1235 16.5708C0.408668 13.0485 0.961389 5.94987 5.33439 3.83653C5.627 3.69564 5.93046 3.58185 6.23933 3.48431C6.27184 3.48431 6.29894 3.48431 6.33145 3.48431C6.47234 3.45179 6.61865 3.40844 6.75954 3.37051C8.88372 2.90991 11.2626 3.45721 12.834 4.95823C14.1833 6.24249 15.2454 7.94942 16.443 9.37457C19.1795 12.6421 22.0461 15.7959 24.8747 18.9822C24.8476 20.2718 24.7446 21.5615 24.6742 22.8512C21.4879 20.364 18.4425 17.6708 15.5055 14.8964C15.4459 14.8368 15.3809 14.8151 15.3105 14.8042C15.1587 14.7555 14.9907 14.7934 14.9095 14.9722C14.9095 14.9722 14.9095 14.9939 14.904 15.0102C14.8932 15.0264 14.8878 15.0481 14.8824 15.0698C14.8824 15.0698 14.8824 15.0698 14.8769 15.0698C14.1129 17.9092 12.5143 20.1743 9.21969 20.028C7.03048 19.9305 4.4186 18.256 3.12892 16.5762L3.1235 16.5708ZM14.3676 18.2669C14.8282 17.557 15.1587 16.7388 15.4297 15.8555C15.874 16.2727 16.3184 16.6846 16.7627 17.091C15.9716 17.492 15.1696 17.8821 14.3676 18.2669ZM31.0576 19.8708C29.1772 20.9438 27.3565 22.0113 25.422 22.9704C25.4924 21.6699 25.5954 20.3694 25.6279 19.0634C28.061 17.5624 30.83 16.7496 33.2359 15.2161C33.2251 16.0777 33.2034 16.9393 33.2089 17.8063C33.2197 19.096 32.0817 19.291 31.0576 19.8763V19.8708Z" fill="#003278"/>
</svg>
