<svg width="15" height="24" viewBox="0 0 15 24" fill="none" xmlns="http://www.w3.org/2000/svg">
<path d="M14.9455 8.63627C14.9299 8.07532 15.0818 6.80929 14.443 6.49765C14.1158 6.33794 13.7379 6.373 13.4263 6.53271C13.3756 5.80815 13.1808 5.14982 12.6394 4.77975C12.2226 4.49148 11.7006 4.37072 11.1864 4.32008C11.2136 3.32284 11.4396 1.8114 11.1942 0.868696C11.1162 0.568744 11.1124 0.385657 10.8319 0.186988C10.4073 -0.112963 9.44509 0.0428557 8.97374 0.0467511C8.14011 0.0545421 7.30647 0.0779149 6.46895 0.070124C5.67427 0.062333 4.8796 0.0584375 4.08102 0.0934968C3.69148 0.112974 3.00977 0.0272738 2.68645 0.28827C2.40597 0.514208 2.49167 0.829741 2.49167 1.17254C2.49167 2.22042 2.48778 3.26831 2.50336 4.31229C2.23847 4.32008 1.98136 4.35125 1.74374 4.44084C0.325789 4.994 0.504981 7.36634 0.427072 8.57004C0.29073 10.7593 0.314103 12.9641 0.450445 15.1534C0.520563 16.2987 0.251776 18.5619 1.45158 19.2242C1.75543 19.3917 2.12939 19.4735 2.51504 19.5124C2.48778 20.6032 2.2969 21.9549 2.51115 23.0183C2.58516 23.3845 2.65528 23.6416 2.99419 23.8325C3.48891 24.1091 4.36539 23.9572 4.90297 23.9572C5.65869 23.9533 6.41831 23.9299 7.17403 23.9299C7.87132 23.9299 8.56082 23.9416 9.25811 23.9182C9.73725 23.9026 10.5865 24.0195 10.9838 23.7351C11.2915 23.5131 11.2058 23.1859 11.2058 22.8314C11.2058 21.7562 11.2097 20.6811 11.1942 19.6059C11.2136 19.6059 11.2292 19.6059 11.2487 19.6059C11.7668 19.6059 12.2966 19.5592 12.6939 19.1852C13.7613 18.188 13.2471 16.1779 13.2588 14.9197C13.2704 13.4705 13.2899 12.0253 13.3055 10.5762C13.6561 10.771 14.0807 10.8021 14.4936 10.6463C15.2104 10.3736 14.965 9.22838 14.9455 8.64016V8.63627ZM3.34868 0.681713C3.65642 0.502521 4.46278 0.619385 4.82116 0.611594C5.37043 0.599908 5.91969 0.603804 6.46895 0.611594C7.50125 0.619385 8.53355 0.580431 9.56585 0.588222C10.4774 0.592117 10.6332 1.30499 10.6332 2.11135C10.6332 2.83591 10.6488 3.56047 10.6332 4.28502C10.5748 4.28502 10.5163 4.28502 10.4618 4.28502C9.28927 4.27723 8.09336 4.33177 6.92082 4.35514C5.87684 4.32008 4.83285 4.34735 3.78886 4.35514C3.55124 4.35514 3.29803 4.33956 3.04093 4.32398C3.00198 3.49424 2.67086 1.07516 3.34478 0.681713H3.34868ZM10.6605 21.6705C10.6605 22.4418 10.8241 23.1079 9.97487 23.3456C9.14124 23.5793 8.04661 23.3845 7.17403 23.3845C6.24301 23.3845 5.31199 23.4157 4.37708 23.4118C4.17452 23.4118 3.80445 23.4897 3.61357 23.404C3.15001 23.1936 3.11884 22.399 3.06041 21.9938C2.95134 21.2147 3.03314 20.3383 3.05262 19.5436C3.43048 19.5553 3.80055 19.5514 4.11998 19.5631C5.40548 19.6098 6.69099 19.5631 7.9765 19.5358C8.86856 19.5202 9.75673 19.5747 10.6449 19.5942C10.6566 20.2876 10.6566 20.9771 10.6527 21.6666L10.6605 21.6705ZM12.7329 15.9091C12.7523 16.2597 12.7991 16.6103 12.7952 16.9648C12.7913 17.7867 12.4797 18.7372 11.5954 19.0605C10.8825 19.3215 9.49183 18.9826 8.75559 18.9865C7.72719 18.9943 6.69489 19.0372 5.66648 19.045C4.84454 19.0489 2.7215 19.2943 2.04369 18.8424C0.98802 18.1334 1.08541 16.4973 1.01139 15.3832C0.949065 14.4444 0.91011 13.5056 0.894528 12.5629C0.863365 10.7087 0.894528 8.83104 1.10488 6.98848C1.21396 6.01851 1.51001 5.20436 2.59685 4.88493C2.91628 4.79144 3.44606 4.9044 3.79665 4.90051C4.84064 4.89272 5.88073 4.86155 6.92861 4.90051C7.87911 4.88103 8.81792 4.9122 9.76841 4.85766C10.7773 4.79923 11.9966 4.69015 12.5186 5.68739C12.9588 6.52492 12.7913 7.59228 12.7874 8.53498C12.7874 9.39588 12.7796 10.2568 12.7718 11.1177C12.7601 12.7109 12.6589 14.3237 12.7446 15.9169L12.7329 15.9091ZM14.217 10.0542C13.9599 10.2451 13.5821 10.2529 13.3445 9.93346C13.3328 9.91788 13.3211 9.91398 13.3094 9.90229C13.3094 9.65688 13.3172 9.41146 13.3172 9.16605C13.3172 8.62848 13.4185 7.90002 13.434 7.17936C13.4457 7.16767 13.4574 7.16378 13.4691 7.1482C13.66 6.89889 14.1391 6.92226 14.2911 7.16378C14.4586 7.42867 14.3845 8.20387 14.3962 8.51161C14.4079 8.85052 14.4118 9.19332 14.4079 9.53222C14.404 9.8127 14.4508 9.88282 14.217 10.0542Z" fill="#003278"/>
</svg>
